<svg width="194" height="32" viewBox="0 0 194 32" fill="none" xmlns="http://www.w3.org/2000/svg">
<path opacity="0.5" d="M0.226 29.152C1.15 29.096 1.808 28.9 2.2 28.564C2.62 28.228 2.886 27.724 2.998 27.052C3.11 26.38 3.166 25.526 3.166 24.49V7.018C3.166 6.402 3.18 5.814 3.208 5.254C3.236 4.666 3.264 4.162 3.292 3.742C2.816 3.77 2.298 3.798 1.738 3.826C1.178 3.854 0.674 3.882 0.226 3.91V1.6L10.936 1.558C13.54 1.558 15.878 1.894 17.95 2.566C20.022 3.238 21.786 4.218 23.242 5.506C24.698 6.766 25.804 8.306 26.56 10.126C27.316 11.946 27.694 13.976 27.694 16.216C27.694 18.092 27.372 19.912 26.728 21.676C26.084 23.44 25.09 25.022 23.746 26.422C22.43 27.794 20.764 28.9 18.748 29.74C16.732 30.58 14.352 31 11.608 31H0.226V29.152ZM7.618 25.414C7.618 26.17 7.604 26.842 7.576 27.43C7.576 28.018 7.548 28.494 7.492 28.858C8.08 28.858 8.668 28.872 9.256 28.9C9.844 28.9 10.362 28.9 10.81 28.9C11.286 28.9 11.622 28.9 11.818 28.9C13.554 28.9 15.094 28.578 16.438 27.934C17.782 27.29 18.916 26.394 19.84 25.246C20.792 24.098 21.506 22.768 21.982 21.256C22.486 19.744 22.738 18.134 22.738 16.426C22.738 13.682 22.29 11.358 21.394 9.454C20.498 7.55 19.14 6.094 17.32 5.086C15.528 4.078 13.288 3.56 10.6 3.532C9.676 3.532 9.004 3.7 8.584 4.036C8.164 4.344 7.898 4.834 7.786 5.506C7.674 6.178 7.618 7.032 7.618 8.068V25.414ZM33.7948 31V29.152C34.7188 29.096 35.3768 28.9 35.7688 28.564C36.1888 28.228 36.4548 27.724 36.5668 27.052C36.6788 26.38 36.7348 25.526 36.7348 24.49V7.018C36.7348 6.402 36.7488 5.814 36.7768 5.254C36.8048 4.666 36.8328 4.162 36.8608 3.742C36.3848 3.77 35.8668 3.798 35.3068 3.826C34.7468 3.854 34.2428 3.882 33.7948 3.91V1.6C35.5028 1.572 37.2248 1.558 38.9608 1.558C40.6968 1.53 42.4468 1.53 44.2108 1.558C46.8428 1.558 49.0128 1.866 50.7208 2.482C52.4288 3.07 53.7028 3.952 54.5428 5.128C55.4108 6.304 55.8308 7.788 55.8028 9.58C55.8308 10.7 55.6068 11.82 55.1308 12.94C54.6548 14.032 53.8568 15.012 52.7368 15.88C51.6168 16.748 50.0768 17.406 48.1168 17.854C48.6768 18.19 49.1808 18.652 49.6288 19.24C50.0768 19.828 50.5388 20.486 51.0148 21.214L53.5768 25.162C54.1088 26.002 54.5988 26.716 55.0468 27.304C55.4948 27.892 55.9988 28.354 56.5588 28.69C57.1188 28.998 57.7908 29.152 58.5748 29.152V31H52.7368C52.0088 30.384 51.3788 29.726 50.8468 29.026C50.3428 28.298 49.7968 27.486 49.2088 26.59L46.3108 21.886C45.9468 21.326 45.5548 20.724 45.1348 20.08C44.7428 19.436 44.3088 18.89 43.8328 18.442C43.3848 18.442 42.9368 18.442 42.4888 18.442C42.0688 18.442 41.6348 18.442 41.1868 18.442V25.372C41.1868 26.128 41.1728 26.814 41.1448 27.43C41.1448 28.018 41.1168 28.494 41.0608 28.858C41.3968 28.83 41.7468 28.816 42.1108 28.816C42.5028 28.788 42.8808 28.76 43.2448 28.732C43.6368 28.704 43.9728 28.69 44.2528 28.69V31H33.7948ZM43.6228 16.384C45.1628 16.356 46.4788 16.118 47.5708 15.67C48.6628 15.194 49.5028 14.48 50.0908 13.528C50.6788 12.548 50.9728 11.288 50.9728 9.748C50.9728 8.6 50.8048 7.634 50.4688 6.85C50.1328 6.066 49.6568 5.436 49.0408 4.96C48.4248 4.456 47.6828 4.106 46.8148 3.91C45.9748 3.686 45.0648 3.574 44.0848 3.574C43.1888 3.574 42.5308 3.742 42.1108 4.078C41.7188 4.414 41.4668 4.904 41.3548 5.548C41.2428 6.192 41.1868 7.018 41.1868 8.026V16.258C41.6068 16.286 41.9988 16.328 42.3628 16.384C42.7548 16.412 43.1748 16.412 43.6228 16.384ZM62.5097 31V29.11C63.3497 29.11 63.9937 28.886 64.4417 28.438C64.8897 27.99 65.2677 27.388 65.5757 26.632C65.8837 25.848 66.2197 24.98 66.5837 24.028L75.0677 0.801998H76.7477L85.9457 24.364C86.1697 24.896 86.4217 25.624 86.7017 26.548C86.9817 27.444 87.1077 28.214 87.0797 28.858C87.5557 28.802 88.0177 28.774 88.4657 28.774C88.9417 28.746 89.3897 28.718 89.8097 28.69V31H79.6037V29.152C80.5837 29.124 81.2277 28.914 81.5357 28.522C81.8717 28.102 81.9977 27.598 81.9137 27.01C81.8577 26.422 81.7177 25.834 81.4937 25.246L80.2337 21.844L69.9437 22.096L68.7257 25.75C68.5577 26.31 68.3757 26.842 68.1797 27.346C67.9837 27.85 67.7877 28.34 67.5917 28.816C68.0957 28.76 68.6277 28.732 69.1877 28.732C69.7757 28.704 70.2937 28.676 70.7417 28.648V31H62.5097ZM70.6997 19.828H79.5197L76.8737 12.73C76.5377 11.806 76.2157 10.896 75.9077 10C75.5997 9.076 75.3197 8.194 75.0677 7.354H75.0257C74.8017 8.054 74.5497 8.824 74.2697 9.664C73.9897 10.504 73.6677 11.414 73.3037 12.394L70.6997 19.828ZM110.921 10.672C110.781 9.244 110.417 7.956 109.829 6.808C109.241 5.66 108.429 4.75 107.393 4.078C106.357 3.378 105.069 3.042 103.529 3.07C101.961 3.07 100.715 3.504 99.7909 4.372C98.8669 5.24 98.4049 6.29 98.4049 7.522C98.4049 8.614 98.7129 9.538 99.3289 10.294C99.9449 11.022 100.771 11.68 101.807 12.268C102.871 12.856 104.061 13.444 105.377 14.032C106.441 14.48 107.519 14.984 108.611 15.544C109.703 16.104 110.697 16.748 111.593 17.476C112.489 18.176 113.203 19.03 113.735 20.038C114.267 21.018 114.533 22.18 114.533 23.524C114.533 25.092 114.127 26.492 113.315 27.724C112.503 28.956 111.341 29.922 109.829 30.622C108.345 31.322 106.539 31.672 104.411 31.672C103.207 31.672 101.933 31.49 100.589 31.126C99.2729 30.762 98.0689 30.244 96.9769 29.572L97.1869 31.336H94.6249L94.4569 22.096H96.4729C96.6969 24.532 97.5649 26.38 99.0769 27.64C100.617 28.872 102.451 29.488 104.579 29.488C105.643 29.488 106.609 29.292 107.477 28.9C108.345 28.508 109.031 27.948 109.535 27.22C110.039 26.492 110.291 25.638 110.291 24.658C110.291 23.51 109.941 22.544 109.241 21.76C108.569 20.976 107.701 20.304 106.637 19.744C105.601 19.184 104.509 18.652 103.361 18.148C102.213 17.644 101.093 17.112 100.001 16.552C98.9369 15.992 97.9709 15.348 97.1029 14.62C96.2349 13.892 95.5489 13.038 95.0449 12.058C94.5409 11.05 94.2889 9.874 94.2889 8.53C94.2889 7.746 94.4289 6.92 94.7089 6.052C94.9889 5.184 95.4649 4.358 96.1369 3.574C96.8089 2.79 97.7189 2.16 98.8669 1.684C100.043 1.18 101.513 0.927999 103.277 0.927999C104.341 0.927999 105.531 1.082 106.847 1.39C108.191 1.698 109.409 2.244 110.501 3.028L110.333 1.264H112.853V10.672H110.921ZM142.931 10.672C142.903 9.076 142.721 7.746 142.385 6.682C142.049 5.618 141.489 4.82 140.705 4.288C139.949 3.756 138.899 3.504 137.555 3.532H134.531L134.489 25.372C134.489 26.128 134.475 26.814 134.447 27.43C134.447 28.018 134.419 28.494 134.363 28.858C134.895 28.802 135.469 28.774 136.085 28.774C136.729 28.746 137.303 28.718 137.807 28.69V31H127.139V29.152C128.063 29.096 128.721 28.9 129.113 28.564C129.505 28.228 129.757 27.724 129.869 27.052C129.981 26.352 130.037 25.498 130.037 24.49V3.574L126.509 3.616C124.801 3.616 123.555 4.19 122.771 5.338C121.987 6.486 121.595 8.264 121.595 10.672H119.621L119.873 1.6H144.653L144.905 10.672H142.931ZM160.847 3.448C159.951 3.476 159.293 3.672 158.873 4.036C158.453 4.372 158.187 4.876 158.075 5.548C157.963 6.192 157.907 7.046 157.907 8.11V25.372C157.907 26.128 157.893 26.814 157.865 27.43C157.865 28.018 157.837 28.494 157.781 28.858C158.257 28.802 158.775 28.774 159.335 28.774C159.923 28.746 160.427 28.718 160.847 28.69V31H150.515V29.152C151.439 29.096 152.097 28.9 152.489 28.564C152.909 28.228 153.175 27.724 153.287 27.052C153.399 26.38 153.455 25.526 153.455 24.49V7.018C153.455 6.402 153.469 5.814 153.497 5.254C153.525 4.666 153.553 4.162 153.581 3.742C153.105 3.77 152.587 3.798 152.027 3.826C151.467 3.854 150.963 3.882 150.515 3.91V1.6H160.847V3.448ZM190.113 10.966C189.805 8.446 188.937 6.514 187.509 5.17C186.081 3.798 184.219 3.098 181.923 3.07C180.467 3.07 179.123 3.392 177.891 4.036C176.659 4.68 175.595 5.59 174.699 6.766C173.803 7.914 173.103 9.286 172.599 10.882C172.123 12.45 171.885 14.172 171.885 16.048C171.885 18.596 172.333 20.864 173.229 22.852C174.125 24.812 175.357 26.338 176.925 27.43C178.521 28.522 180.327 29.068 182.343 29.068C184.135 29.068 185.899 28.648 187.635 27.808C189.399 26.94 190.855 25.722 192.003 24.154L193.389 25.33C192.129 27.066 190.785 28.396 189.357 29.32C187.929 30.244 186.501 30.86 185.073 31.168C183.673 31.504 182.399 31.672 181.251 31.672C179.151 31.672 177.219 31.294 175.455 30.538C173.691 29.782 172.165 28.732 170.877 27.388C169.617 26.016 168.637 24.434 167.937 22.642C167.265 20.822 166.929 18.862 166.929 16.762C166.929 14.802 167.237 12.884 167.853 11.008C168.469 9.132 169.379 7.438 170.583 5.926C171.787 4.386 173.299 3.168 175.119 2.272C176.967 1.376 179.109 0.927999 181.545 0.927999C182.973 0.927999 184.359 1.124 185.703 1.516C187.075 1.908 188.391 2.51 189.651 3.322L189.441 1.222H192.045V10.966H190.113Z" fill="#9B9B9B"/>
</svg>
