<svg width="103" height="33" viewBox="0 0 103 33" fill="none" xmlns="http://www.w3.org/2000/svg">
<path opacity="0.5" d="M16.69 3.76V7.44H4.57V16.2H14.57V19.72H4.57V32H0.0100002V3.76H16.69ZM20.1122 3.56C20.1122 2.78667 20.3789 2.14667 20.9122 1.64C21.4455 1.13333 22.1522 0.879998 23.0322 0.879998C23.9122 0.879998 24.6189 1.13333 25.1522 1.64C25.7122 2.14667 25.9922 2.78667 25.9922 3.56C25.9922 4.33333 25.7122 4.96 25.1522 5.44C24.6189 5.92 23.9122 6.16 23.0322 6.16C22.1522 6.16 21.4455 5.92 20.9122 5.44C20.3789 4.96 20.1122 4.33333 20.1122 3.56ZM25.3122 9.96V32H20.7522V9.96H25.3122ZM41.9103 28.04V32H39.1103C36.7636 32 34.977 31.44 33.7503 30.32C32.5503 29.1733 31.9503 27.28 31.9503 24.64V13.84H28.7903V9.96H31.9503V4.48H36.5503V9.96H41.8703V13.84H36.5503V24.72C36.5503 25.9733 36.777 26.84 37.2303 27.32C37.7103 27.8 38.537 28.04 39.7103 28.04H41.9103ZM50.7419 2.4V32H46.1819V2.4H50.7419ZM76.58 9.96V32H71.98V27.2C71.42 28.8267 70.4467 30.0933 69.06 31C67.6733 31.88 66.06 32.32 64.22 32.32C61.66 32.32 59.6067 31.4933 58.06 29.84C56.5133 28.1867 55.74 25.8267 55.74 22.76V9.96H60.3V22.28C60.3 24.28 60.8067 25.8267 61.82 26.92C62.8333 27.9867 64.22 28.52 65.98 28.52C67.7933 28.52 69.2467 27.9333 70.34 26.76C71.4333 25.5867 71.98 23.88 71.98 21.64V9.96H76.58ZM91.0813 27.28L97.3213 9.96H102.201L93.8013 32H88.2813L79.8813 9.96H84.7613L91.0813 27.28Z" fill="#9B9B9B"/>
</svg>
