<svg width="177" height="28" viewBox="0 0 177 28" fill="none" xmlns="http://www.w3.org/2000/svg">
<path opacity="0.5" d="M23.454 28H18.305V15.992H5.423V28H0.274V0.525998H5.423V12.344H18.305V0.525998H23.454V28ZM58.8457 28H54.8937C54.4503 28 54.083 27.8923 53.7917 27.677C53.513 27.449 53.3103 27.1703 53.1837 26.841L51.1317 21.236H39.7507L37.6987 26.841C37.5973 27.1323 37.3947 27.3983 37.0907 27.639C36.7993 27.8797 36.4383 28 36.0077 28H32.0367L42.8287 0.525998H48.0537L58.8457 28ZM41.0617 17.626H49.8207L46.4767 8.487C46.3247 8.08167 46.1537 7.60667 45.9637 7.062C45.7863 6.50467 45.609 5.903 45.4317 5.257C45.2543 5.903 45.077 6.50467 44.8997 7.062C44.735 7.61933 44.5703 8.107 44.4057 8.525L41.0617 17.626ZM72.6572 18.329V28H67.5462V0.525998H76.4952C78.3318 0.525998 79.9215 0.741332 81.2642 1.172C82.6068 1.60267 83.7152 2.20433 84.5892 2.977C85.4632 3.74967 86.1092 4.67433 86.5272 5.751C86.9452 6.82767 87.1542 8.00567 87.1542 9.285C87.1542 10.615 86.9325 11.8373 86.4892 12.952C86.0458 14.054 85.3808 15.004 84.4942 15.802C83.6075 16.6 82.4992 17.2207 81.1692 17.664C79.8392 18.1073 78.2812 18.329 76.4952 18.329H72.6572ZM72.6572 14.339H76.4952C77.4325 14.339 78.2495 14.225 78.9462 13.997C79.6428 13.7563 80.2192 13.4207 80.6752 12.99C81.1312 12.5467 81.4732 12.0147 81.7012 11.394C81.9292 10.7607 82.0432 10.0577 82.0432 9.285C82.0432 8.55033 81.9292 7.88533 81.7012 7.29C81.4732 6.69467 81.1312 6.188 80.6752 5.77C80.2192 5.352 79.6428 5.03533 78.9462 4.82C78.2495 4.592 77.4325 4.478 76.4952 4.478H72.6572V14.339ZM102.107 18.329V28H96.9962V0.525998H105.945C107.782 0.525998 109.372 0.741332 110.714 1.172C112.057 1.60267 113.165 2.20433 114.039 2.977C114.913 3.74967 115.559 4.67433 115.977 5.751C116.395 6.82767 116.604 8.00567 116.604 9.285C116.604 10.615 116.383 11.8373 115.939 12.952C115.496 14.054 114.831 15.004 113.944 15.802C113.058 16.6 111.949 17.2207 110.619 17.664C109.289 18.1073 107.731 18.329 105.945 18.329H102.107ZM102.107 14.339H105.945C106.883 14.339 107.7 14.225 108.396 13.997C109.093 13.7563 109.669 13.4207 110.125 12.99C110.581 12.5467 110.923 12.0147 111.151 11.394C111.379 10.7607 111.493 10.0577 111.493 9.285C111.493 8.55033 111.379 7.88533 111.151 7.29C110.923 6.69467 110.581 6.188 110.125 5.77C109.669 5.352 109.093 5.03533 108.396 4.82C107.7 4.592 106.883 4.478 105.945 4.478H102.107V14.339ZM143.603 0.525998V4.592H131.424V12.211H141.019V16.144H131.424V23.915H143.603V28H126.275V0.525998H143.603ZM156.4 0.525998C156.628 0.525998 156.818 0.538665 156.97 0.563998C157.122 0.576665 157.255 0.614665 157.369 0.677998C157.496 0.728666 157.616 0.810999 157.73 0.924999C157.844 1.02633 157.971 1.16567 158.11 1.343L172.531 19.716C172.481 19.2727 172.443 18.842 172.417 18.424C172.405 17.9933 172.398 17.5943 172.398 17.227V0.525998H176.901V28H174.26C173.855 28 173.519 27.9367 173.253 27.81C172.987 27.6833 172.728 27.4553 172.474 27.126L158.11 8.829C158.148 9.23433 158.174 9.63967 158.186 10.045C158.212 10.4377 158.224 10.7987 158.224 11.128V28H153.721V0.525998H156.4Z" fill="#9B9B9B"/>
</svg>
