<svg width="152" height="42" viewBox="0 0 152 42" fill="none" xmlns="http://www.w3.org/2000/svg">
<path d="M0.33 0.609999H6.092V24.776C6.092 25.808 6.264 26.5103 6.608 26.883C6.952 27.227 7.425 27.399 8.027 27.399C8.48567 27.399 8.95867 27.3417 9.446 27.227C9.93333 27.1123 10.3633 26.969 10.736 26.797L11.51 31.183C10.736 31.5557 9.833 31.8423 8.801 32.043C7.769 32.2437 6.83733 32.344 6.006 32.344C4.2 32.344 2.79533 31.871 1.792 30.925C0.817333 29.9503 0.33 28.5743 0.33 26.797V0.609999ZM12.4725 25.335C12.4725 23.873 12.8738 22.5973 13.6765 21.508C14.5078 20.39 15.6545 19.53 17.1165 18.928C18.5785 18.326 20.2555 18.025 22.1475 18.025C23.0935 18.025 24.0538 18.0967 25.0285 18.24C26.0031 18.3833 26.8488 18.6127 27.5655 18.928V17.724C27.5655 16.2907 27.1355 15.187 26.2755 14.413C25.4441 13.639 24.1971 13.252 22.5345 13.252C21.3018 13.252 20.1265 13.467 19.0085 13.897C17.8905 14.327 16.7151 14.9577 15.4825 15.789L13.6335 12.005C15.1241 11.0303 16.6435 10.2993 18.1915 9.812C19.7681 9.32466 21.4165 9.081 23.1365 9.081C26.3471 9.081 28.8411 9.88366 30.6185 11.489C32.4245 13.0943 33.3275 15.3877 33.3275 18.369V25.55C33.3275 26.152 33.4278 26.582 33.6285 26.84C33.8578 27.098 34.2161 27.2557 34.7035 27.313V32C34.1875 32.086 33.7145 32.1577 33.2845 32.215C32.8831 32.2723 32.5391 32.301 32.2525 32.301C31.1058 32.301 30.2315 32.043 29.6295 31.527C29.0561 31.011 28.6978 30.3803 28.5545 29.635L28.4255 28.474C27.4508 29.7353 26.2325 30.71 24.7705 31.398C23.3085 32.086 21.8178 32.43 20.2985 32.43C18.8078 32.43 17.4605 32.129 16.2565 31.527C15.0811 30.8963 14.1495 30.0507 13.4615 28.99C12.8021 27.9007 12.4725 26.6823 12.4725 25.335ZM26.4905 26.496C26.8058 26.152 27.0638 25.808 27.2645 25.464C27.4651 25.12 27.5655 24.8047 27.5655 24.518V22.239C26.8775 21.9523 26.1321 21.7373 25.3295 21.594C24.5268 21.422 23.7671 21.336 23.0505 21.336C21.5598 21.336 20.3271 21.6657 19.3525 22.325C18.4065 22.9557 17.9335 23.8013 17.9335 24.862C17.9335 25.4353 18.0911 25.98 18.4065 26.496C18.7218 27.012 19.1805 27.4277 19.7825 27.743C20.3845 28.0583 21.1011 28.216 21.9325 28.216C22.7925 28.216 23.6381 28.0583 24.4695 27.743C25.3008 27.399 25.9745 26.9833 26.4905 26.496ZM59.6529 32H53.8909V19.358C53.8909 17.552 53.5755 16.2333 52.9449 15.402C52.3142 14.5707 51.4399 14.155 50.3219 14.155C49.5479 14.155 48.7595 14.3557 47.9569 14.757C47.1829 15.1583 46.4805 15.7173 45.8499 16.434C45.2192 17.122 44.7605 17.9247 44.4739 18.842V32H38.7119V9.468H43.9149V13.639C44.4882 12.6643 45.2192 11.8473 46.1079 11.188C46.9965 10.5 48.0142 9.984 49.1609 9.64C50.3362 9.26733 51.5689 9.081 52.8589 9.081C54.2635 9.081 55.4102 9.339 56.2989 9.855C57.2162 10.3423 57.9042 11.016 58.3629 11.876C58.8502 12.7073 59.1799 13.6533 59.3519 14.714C59.5525 15.7747 59.6529 16.8497 59.6529 17.939V32ZM63.287 20.734C63.287 18.5553 63.717 16.5917 64.577 14.843C65.437 13.0657 66.6267 11.661 68.146 10.629C69.6654 9.597 71.3997 9.081 73.349 9.081C75.0117 9.081 76.5024 9.49667 77.821 10.328C79.1684 11.1307 80.2147 12.1627 80.96 13.424V0.609999H86.722V25.55C86.722 26.152 86.8224 26.582 87.023 26.84C87.2237 27.098 87.5677 27.2557 88.055 27.313V32C87.0517 32.2007 86.2347 32.301 85.604 32.301C84.572 32.301 83.712 32.043 83.024 31.527C82.3647 31.011 81.992 30.3373 81.906 29.506L81.82 28.087C80.9887 29.4917 79.8564 30.5667 78.423 31.312C77.0184 32.0573 75.542 32.43 73.994 32.43C72.446 32.43 71.0127 32.129 69.694 31.527C68.404 30.925 67.2717 30.0937 66.297 29.033C65.351 27.9723 64.6057 26.7397 64.061 25.335C63.545 23.9017 63.287 22.368 63.287 20.734ZM80.96 23.744V18.369C80.6734 17.5377 80.2147 16.7923 79.584 16.133C78.9534 15.4737 78.251 14.9577 77.477 14.585C76.703 14.1837 75.929 13.983 75.155 13.983C74.2664 13.983 73.4637 14.1693 72.747 14.542C72.0304 14.9147 71.3997 15.4163 70.855 16.047C70.339 16.6777 69.9377 17.4087 69.651 18.24C69.393 19.0713 69.264 19.9457 69.264 20.863C69.264 21.7803 69.4074 22.6547 69.694 23.486C70.0094 24.2887 70.4537 24.991 71.027 25.593C71.6004 26.195 72.2597 26.668 73.005 27.012C73.779 27.356 74.6104 27.528 75.499 27.528C76.0437 27.528 76.5884 27.442 77.133 27.27C77.7064 27.0693 78.2367 26.8113 78.724 26.496C79.24 26.152 79.6844 25.7507 80.057 25.292C80.4584 24.8047 80.7594 24.2887 80.96 23.744ZM92.3779 32V9.468H98.1399V32H92.3779ZM92.3779 6.329V0.609999H98.1399V6.329H92.3779ZM124.279 32H118.517V19.358C118.517 17.552 118.202 16.2333 117.571 15.402C116.94 14.5707 116.066 14.155 114.948 14.155C114.174 14.155 113.386 14.3557 112.583 14.757C111.809 15.1583 111.107 15.7173 110.476 16.434C109.845 17.122 109.387 17.9247 109.1 18.842V32H103.338V9.468H108.541V13.639C109.114 12.6643 109.845 11.8473 110.734 11.188C111.623 10.5 112.64 9.984 113.787 9.64C114.962 9.26733 116.195 9.081 117.485 9.081C118.89 9.081 120.036 9.339 120.925 9.855C121.842 10.3423 122.53 11.016 122.989 11.876C123.476 12.7073 123.806 13.6533 123.978 14.714C124.179 15.7747 124.279 16.8497 124.279 17.939V32ZM138.104 32.129C136.613 32.129 135.237 31.8423 133.976 31.269C132.743 30.667 131.668 29.8357 130.751 28.775C129.862 27.7143 129.174 26.496 128.687 25.12C128.2 23.744 127.956 22.282 127.956 20.734C127.956 19.1 128.214 17.5807 128.73 16.176C129.246 14.7713 129.963 13.5387 130.88 12.478C131.826 11.3887 132.93 10.5573 134.191 9.984C135.481 9.382 136.9 9.081 138.448 9.081C140.197 9.081 141.73 9.48233 143.049 10.285C144.368 11.059 145.457 12.1053 146.317 13.424V9.468H151.348V30.925C151.348 33.161 150.803 35.0673 149.714 36.644C148.653 38.2493 147.177 39.4677 145.285 40.299C143.393 41.159 141.243 41.589 138.835 41.589C136.398 41.589 134.334 41.1733 132.643 40.342C130.952 39.5393 129.504 38.3927 128.3 36.902L131.439 33.849C132.299 34.9097 133.374 35.741 134.664 36.343C135.983 36.945 137.373 37.246 138.835 37.246C140.068 37.246 141.186 37.0167 142.189 36.558C143.221 36.128 144.038 35.44 144.64 34.494C145.271 33.5767 145.586 32.387 145.586 30.925V28.087C144.841 29.377 143.78 30.3803 142.404 31.097C141.057 31.785 139.623 32.129 138.104 32.129ZM140.039 27.528C140.67 27.528 141.272 27.4277 141.845 27.227C142.418 27.0263 142.949 26.754 143.436 26.41C143.923 26.066 144.353 25.6647 144.726 25.206C145.099 24.7187 145.385 24.2313 145.586 23.744V18.369C145.242 17.4803 144.755 16.7063 144.124 16.047C143.522 15.3877 142.834 14.886 142.06 14.542C141.315 14.1693 140.526 13.983 139.695 13.983C138.806 13.983 138.004 14.1693 137.287 14.542C136.57 14.9147 135.954 15.445 135.438 16.133C134.922 16.7923 134.521 17.5377 134.234 18.369C133.976 19.1717 133.847 20.0173 133.847 20.906C133.847 21.8233 134.005 22.6833 134.32 23.486C134.635 24.2887 135.065 24.991 135.61 25.593C136.183 26.195 136.843 26.668 137.588 27.012C138.362 27.356 139.179 27.528 140.039 27.528Z" fill="#3FC3D7"/>
</svg>
