<svg width="84" height="15" viewBox="0 0 84 15" fill="none" xmlns="http://www.w3.org/2000/svg">
<g clip-path="url(#clip0_1_233)">
<path d="M12.0417 14.0629C11.9431 14.0633 11.8468 14.0326 11.7666 13.9751L7.99877 11.2434L4.2309 13.9751C4.1504 14.0334 4.05342 14.0647 3.95398 14.0644C3.85453 14.064 3.75778 14.032 3.67771 13.973C3.59764 13.9141 3.5384 13.8312 3.50855 13.7363C3.4787 13.6415 3.47979 13.5396 3.51166 13.4454L4.98119 9.09273L1.1726 6.48092C1.0901 6.42441 1.02784 6.34299 0.994902 6.24858C0.961969 6.15416 0.960092 6.05169 0.989545 5.95613C1.019 5.86057 1.07824 5.77693 1.15861 5.71744C1.23898 5.65794 1.33627 5.62571 1.43627 5.62545H6.1349L7.55287 1.26168C7.58342 1.16747 7.64302 1.08535 7.72312 1.02711C7.80323 0.96887 7.89973 0.9375 7.99877 0.9375C8.09781 0.9375 8.1943 0.96887 8.27441 1.02711C8.35452 1.08535 8.41412 1.16747 8.44467 1.26168L9.86263 5.62691H14.5613C14.6614 5.62686 14.7589 5.65887 14.8395 5.71825C14.9201 5.77763 14.9796 5.86126 15.0092 5.95689C15.0389 6.05253 15.0371 6.15514 15.0042 6.2497C14.9713 6.34426 14.909 6.4258 14.8264 6.48238L11.0163 9.09273L12.485 13.4442C12.5088 13.5146 12.5155 13.5897 12.5045 13.6633C12.4936 13.7368 12.4653 13.8067 12.422 13.8672C12.3786 13.9276 12.3216 13.9769 12.2555 14.011C12.1894 14.045 12.1161 14.0628 12.0417 14.0629Z" fill="#FBB911"/>
</g>
<g clip-path="url(#clip1_1_233)">
<path d="M29.0417 14.0629C28.9431 14.0633 28.8468 14.0326 28.7666 13.9751L24.9988 11.2434L21.2309 13.9751C21.1504 14.0334 21.0534 14.0647 20.954 14.0644C20.8545 14.064 20.7578 14.032 20.6777 13.973C20.5976 13.9141 20.5384 13.8312 20.5085 13.7363C20.4787 13.6415 20.4798 13.5396 20.5117 13.4454L21.9812 9.09273L18.1726 6.48092C18.0901 6.42441 18.0278 6.34299 17.9949 6.24858C17.962 6.15416 17.9601 6.05169 17.9895 5.95613C18.019 5.86057 18.0782 5.77693 18.1586 5.71744C18.239 5.65794 18.3363 5.62571 18.4363 5.62545H23.1349L24.5529 1.26168C24.5834 1.16747 24.643 1.08535 24.7231 1.02711C24.8032 0.96887 24.8997 0.9375 24.9988 0.9375C25.0978 0.9375 25.1943 0.96887 25.2744 1.02711C25.3545 1.08535 25.4141 1.16747 25.4447 1.26168L26.8626 5.62691H31.5613C31.6614 5.62686 31.7589 5.65887 31.8395 5.71825C31.9201 5.77763 31.9796 5.86126 32.0092 5.95689C32.0389 6.05253 32.0371 6.15514 32.0042 6.2497C31.9713 6.34426 31.909 6.4258 31.8264 6.48238L28.0163 9.09273L29.485 13.4442C29.5088 13.5146 29.5155 13.5897 29.5045 13.6633C29.4936 13.7368 29.4653 13.8067 29.422 13.8672C29.3786 13.9276 29.3216 13.9769 29.2555 14.011C29.1894 14.045 29.1161 14.0628 29.0417 14.0629Z" fill="#FBB911"/>
</g>
<g clip-path="url(#clip2_1_233)">
<path d="M46.0417 14.0629C45.9431 14.0633 45.8468 14.0326 45.7666 13.9751L41.9988 11.2434L38.2309 13.9751C38.1504 14.0334 38.0534 14.0647 37.954 14.0644C37.8545 14.064 37.7578 14.032 37.6777 13.973C37.5976 13.9141 37.5384 13.8312 37.5085 13.7363C37.4787 13.6415 37.4798 13.5396 37.5117 13.4454L38.9812 9.09273L35.1726 6.48092C35.0901 6.42441 35.0278 6.34299 34.9949 6.24858C34.962 6.15416 34.9601 6.05169 34.9895 5.95613C35.019 5.86057 35.0782 5.77693 35.1586 5.71744C35.239 5.65794 35.3363 5.62571 35.4363 5.62545H40.1349L41.5529 1.26168C41.5834 1.16747 41.643 1.08535 41.7231 1.02711C41.8032 0.96887 41.8997 0.9375 41.9988 0.9375C42.0978 0.9375 42.1943 0.96887 42.2744 1.02711C42.3545 1.08535 42.4141 1.16747 42.4447 1.26168L43.8626 5.62691H48.5613C48.6614 5.62686 48.7589 5.65887 48.8395 5.71825C48.9201 5.77763 48.9796 5.86126 49.0092 5.95689C49.0389 6.05253 49.0371 6.15514 49.0042 6.2497C48.9713 6.34426 48.909 6.4258 48.8264 6.48238L45.0163 9.09273L46.485 13.4442C46.5088 13.5146 46.5155 13.5897 46.5045 13.6633C46.4936 13.7368 46.4653 13.8067 46.422 13.8672C46.3786 13.9276 46.3216 13.9769 46.2555 14.011C46.1894 14.045 46.1161 14.0628 46.0417 14.0629Z" fill="#FBB911"/>
</g>
<g clip-path="url(#clip3_1_233)">
<path d="M63.0417 14.0629C62.9431 14.0633 62.8468 14.0326 62.7666 13.9751L58.9988 11.2434L55.2309 13.9751C55.1504 14.0334 55.0534 14.0647 54.954 14.0644C54.8545 14.064 54.7578 14.032 54.6777 13.973C54.5976 13.9141 54.5384 13.8312 54.5085 13.7363C54.4787 13.6415 54.4798 13.5396 54.5117 13.4454L55.9812 9.09273L52.1726 6.48092C52.0901 6.42441 52.0278 6.34299 51.9949 6.24858C51.962 6.15416 51.9601 6.05169 51.9895 5.95613C52.019 5.86057 52.0782 5.77693 52.1586 5.71744C52.239 5.65794 52.3363 5.62571 52.4363 5.62545H57.1349L58.5529 1.26168C58.5834 1.16747 58.643 1.08535 58.7231 1.02711C58.8032 0.96887 58.8997 0.9375 58.9988 0.9375C59.0978 0.9375 59.1943 0.96887 59.2744 1.02711C59.3545 1.08535 59.4141 1.16747 59.4447 1.26168L60.8626 5.62691H65.5613C65.6614 5.62686 65.7589 5.65887 65.8395 5.71825C65.9201 5.77763 65.9796 5.86126 66.0092 5.95689C66.0389 6.05253 66.0371 6.15514 66.0042 6.2497C65.9713 6.34426 65.909 6.4258 65.8264 6.48238L62.0163 9.09273L63.485 13.4442C63.5088 13.5146 63.5155 13.5897 63.5045 13.6633C63.4936 13.7368 63.4653 13.8067 63.422 13.8672C63.3786 13.9276 63.3216 13.9769 63.2555 14.011C63.1894 14.045 63.1161 14.0628 63.0417 14.0629Z" fill="#FBB911"/>
</g>
<g clip-path="url(#clip4_1_233)">
<path d="M80.0417 14.0629C79.9431 14.0633 79.8468 14.0326 79.7666 13.9751L75.9988 11.2434L72.2309 13.9751C72.1504 14.0334 72.0534 14.0647 71.954 14.0644C71.8545 14.064 71.7578 14.032 71.6777 13.973C71.5976 13.9141 71.5384 13.8312 71.5085 13.7363C71.4787 13.6415 71.4798 13.5396 71.5117 13.4454L72.9812 9.09273L69.1726 6.48092C69.0901 6.42441 69.0278 6.34299 68.9949 6.24858C68.962 6.15416 68.9601 6.05169 68.9895 5.95613C69.019 5.86057 69.0782 5.77693 69.1586 5.71744C69.239 5.65794 69.3363 5.62571 69.4363 5.62545H74.1349L75.5529 1.26168C75.5834 1.16747 75.643 1.08535 75.7231 1.02711C75.8032 0.96887 75.8997 0.9375 75.9988 0.9375C76.0978 0.9375 76.1943 0.96887 76.2744 1.02711C76.3545 1.08535 76.4141 1.16747 76.4447 1.26168L77.8626 5.62691H82.5613C82.6614 5.62686 82.7589 5.65887 82.8395 5.71825C82.9201 5.77763 82.9796 5.86126 83.0092 5.95689C83.0389 6.05253 83.0371 6.15514 83.0042 6.2497C82.9713 6.34426 82.909 6.4258 82.8264 6.48238L79.0163 9.09273L80.485 13.4442C80.5088 13.5146 80.5155 13.5897 80.5045 13.6633C80.4936 13.7368 80.4653 13.8067 80.422 13.8672C80.3786 13.9276 80.3216 13.9769 80.2555 14.011C80.1894 14.045 80.1161 14.0628 80.0417 14.0629Z" fill="#FBB911"/>
</g>
<defs>
<clipPath id="clip0_1_233">
<rect width="15" height="15" fill="white" transform="translate(0.5)"/>
</clipPath>
<clipPath id="clip1_1_233">
<rect width="15" height="15" fill="white" transform="translate(17.5)"/>
</clipPath>
<clipPath id="clip2_1_233">
<rect width="15" height="15" fill="white" transform="translate(34.5)"/>
</clipPath>
<clipPath id="clip3_1_233">
<rect width="15" height="15" fill="white" transform="translate(51.5)"/>
</clipPath>
<clipPath id="clip4_1_233">
<rect width="15" height="15" fill="white" transform="translate(68.5)"/>
</clipPath>
</defs>
</svg>
