<svg width="41" height="32" viewBox="0 0 41 32" fill="none" xmlns="http://www.w3.org/2000/svg">
<path d="M0.564 20.972H6.774C6.89667 22.0147 7.372 22.9653 8.2 23.824C9.05867 24.652 10.178 25.3113 11.558 25.802C12.938 26.262 14.4867 26.492 16.204 26.492C17.768 26.492 19.056 26.3233 20.068 25.986C21.08 25.6487 21.8313 25.1733 22.322 24.56C22.8127 23.9467 23.058 23.2107 23.058 22.352C23.058 21.524 22.7513 20.8953 22.138 20.466C21.5247 20.006 20.5587 19.638 19.24 19.362C17.9213 19.0553 16.1887 18.7487 14.042 18.442C12.3553 18.1967 10.7607 17.8593 9.258 17.43C7.75533 16.97 6.42133 16.3873 5.256 15.682C4.12133 14.9767 3.21667 14.118 2.542 13.106C1.898 12.0633 1.576 10.8367 1.576 9.426C1.576 7.678 2.06667 6.14467 3.048 4.826C4.06 3.50733 5.54733 2.48 7.51 1.744C9.47267 1.008 11.88 0.639999 14.732 0.639999C19.0253 0.639999 22.322 1.56 24.622 3.4C26.9527 5.20933 28.0873 7.70867 28.026 10.898H22.046C21.9233 9.08867 21.1567 7.78533 19.746 6.988C18.366 6.19067 16.618 5.792 14.502 5.792C12.5393 5.792 10.914 6.08333 9.626 6.666C8.36867 7.24866 7.74 8.24533 7.74 9.656C7.74 10.208 7.89333 10.6987 8.2 11.128C8.50667 11.5267 9.028 11.8793 9.764 12.186C10.5 12.4927 11.4967 12.784 12.754 13.06C14.0113 13.336 15.5753 13.612 17.446 13.888C19.194 14.1333 20.7733 14.4707 22.184 14.9C23.6253 15.2987 24.852 15.8353 25.864 16.51C26.9067 17.154 27.704 17.982 28.256 18.994C28.808 20.006 29.084 21.248 29.084 22.72C29.084 24.5293 28.6087 26.1087 27.658 27.458C26.738 28.7767 25.2967 29.804 23.334 30.54C21.402 31.276 18.8873 31.644 15.79 31.644C13.582 31.644 11.6347 31.414 9.948 30.954C8.26133 30.4633 6.80467 29.8193 5.578 29.022C4.35133 28.2247 3.35467 27.3507 2.588 26.4C1.82133 25.4493 1.26933 24.4987 0.932 23.548C0.625333 22.5973 0.502667 21.7387 0.564 20.972Z" fill="white"/>
<path d="M40.6455 25.756V31H33.6995V25.756H40.6455Z" fill="#3FC3D7"/>
</svg>
