<svg width="82" height="81" viewBox="0 0 82 81" fill="none" xmlns="http://www.w3.org/2000/svg">
<g id="solar:bolt-outline">
<path id="Vector" fill-rule="evenodd" clip-rule="evenodd" d="M69.7826 35.012C68.5339 32.8453 66.2389 32.1331 64.0485 31.826C61.8446 31.5189 58.8915 31.5189 55.3208 31.5189H55.1183C52.992 31.5189 51.5981 31.4953 50.5856 31.3569C49.671 31.2286 49.3808 31.0396 49.2559 30.9283C49.1648 30.8338 49.0028 30.6144 48.8914 29.8145C48.7598 28.8695 48.7564 27.5769 48.7564 25.5046V24.2424C48.7564 18.8829 48.7564 14.5899 48.3413 11.5321C47.9565 8.66 47.0351 5.4335 43.8491 4.45475C40.7171 3.49625 38.0914 5.555 36.0529 7.6745C33.876 9.93575 31.2941 13.4289 28.0609 17.8029L17.4735 32.1298C15.4148 34.9141 13.6935 37.2395 12.6743 39.1599C11.6483 41.0836 10.9024 43.3719 12.0398 45.6534V45.6601L12.0533 45.6871L12.0668 45.7108L12.0803 45.7378L12.0971 45.7648L12.1106 45.7918L12.1241 45.8188L12.141 45.8458L12.1545 45.8694L12.1579 45.8761C13.3999 48.026 15.6814 48.7786 17.892 49.1161C20.1668 49.4604 23.2043 49.484 26.8864 49.484C29.0363 49.484 30.4031 49.4874 31.4089 49.619C32.2999 49.7304 32.5665 49.9059 32.6779 50.0038C32.7791 50.1118 32.958 50.3581 33.0829 51.185C33.2246 52.1334 33.2483 53.4463 33.2483 55.4949V56.7605C33.2483 62.1166 33.2483 66.413 33.66 69.4708C34.0481 72.3395 34.9661 75.5694 38.1521 76.5448C41.2841 77.5033 43.9099 75.4479 45.9484 73.325C48.1253 71.0638 50.7071 67.574 53.9404 63.1966L64.4029 49.0453C66.5291 46.163 68.2841 43.7566 69.3135 41.7553C70.326 39.7978 71.0314 37.496 69.9041 35.2348L69.8974 35.228L69.8873 35.201L69.8738 35.174L69.8603 35.1504L69.8468 35.12L69.8299 35.093L69.8164 35.0694L69.7995 35.0424L69.786 35.0188L69.7826 35.012ZM39.7013 11.1845C37.7809 13.1758 35.3948 16.3989 32.0063 20.9821L21.672 34.9648C19.4513 37.9685 17.9663 39.9901 17.1428 41.5393C16.7378 42.2919 16.5893 42.7678 16.5454 43.058C16.5184 43.2369 16.5353 43.3145 16.5555 43.3685C16.6399 43.4866 16.9943 43.8545 18.6548 44.111C20.4705 44.3878 23.0794 44.4215 26.8864 44.4215H27.0416C28.989 44.4215 30.6866 44.4215 32.0501 44.5936C33.5115 44.7826 34.9661 45.2045 36.1676 46.3351L36.1879 46.3554L36.2081 46.3723C37.3894 47.5333 37.8686 48.971 38.088 50.4324C38.2973 51.8296 38.3108 53.5475 38.3108 55.4949V56.5411C38.3108 62.1673 38.3141 66.1126 38.6753 68.7924C38.8575 70.1289 39.0971 70.9119 39.33 71.3473C39.5021 71.6746 39.6034 71.6983 39.6338 71.705H39.6405C39.6743 71.7185 39.8025 71.7624 40.1839 71.57C40.6631 71.327 41.3483 70.8073 42.3034 69.815C44.2204 67.8238 46.6099 64.6006 49.9984 60.0174L60.3293 46.0348C62.5365 43.0479 64.008 40.9993 64.818 39.4333C65.5065 38.0934 65.4289 37.6411 65.385 37.5196C65.3074 37.4083 64.9699 37.0674 63.3499 36.8379C61.5375 36.5848 58.9421 36.5814 55.1149 36.5814C53.0831 36.5814 51.318 36.5679 49.8904 36.3688C48.4155 36.1663 46.9575 35.7208 45.7661 34.6003L45.7459 34.58L45.729 34.5631C44.5376 33.392 44.0753 31.9576 43.8761 30.5064C43.6905 29.1766 43.6939 27.5263 43.6939 25.6666V24.4584C43.6939 18.8323 43.6871 14.8869 43.3226 12.2071C43.1471 10.874 42.9041 10.091 42.6713 9.65225C42.4991 9.32488 42.4013 9.30463 42.3709 9.29788H42.3641L42.3608 9.2945C42.327 9.281 42.2021 9.2405 41.8174 9.4295C41.3381 9.6725 40.6564 10.1923 39.7013 11.1845Z" fill="#3FC3D7"/>
</g>
</svg>
