<svg width="82" height="81" viewBox="0 0 82 81" fill="none" xmlns="http://www.w3.org/2000/svg">
<g id="solar:bicycling-round-outline">
<path id="Vector" fill-rule="evenodd" clip-rule="evenodd" d="M47.75 9.28125C46.6311 9.28125 45.5581 9.72572 44.7669 10.5169C43.9757 11.3081 43.5312 12.3811 43.5312 13.5C43.5312 14.6189 43.9757 15.6919 44.7669 16.4831C45.5581 17.2743 46.6311 17.7188 47.75 17.7188C48.8689 17.7188 49.9419 17.2743 50.7331 16.4831C51.5243 15.6919 51.9688 14.6189 51.9688 13.5C51.9688 12.3811 51.5243 11.3081 50.7331 10.5169C49.9419 9.72572 48.8689 9.28125 47.75 9.28125ZM38.4688 13.5C38.4688 11.0385 39.4466 8.67774 41.1872 6.93717C42.9277 5.19659 45.2885 4.21875 47.75 4.21875C50.2115 4.21875 52.5723 5.19659 54.3128 6.93717C56.0534 8.67774 57.0312 11.0385 57.0312 13.5C57.0312 15.9615 56.0534 18.3223 54.3128 20.0628C52.5723 21.8034 50.2115 22.7813 47.75 22.7813C45.2885 22.7813 42.9277 21.8034 41.1872 20.0628C39.4466 18.3223 38.4688 15.9615 38.4688 13.5ZM37.3516 28.7078C36.6424 28.1411 35.8203 27.7325 34.9403 27.5093C34.0603 27.2862 33.1428 27.2537 32.2493 27.4139C31.3557 27.5742 30.5067 27.9235 29.7591 28.4386C29.0115 28.9536 28.3826 29.6224 27.9145 30.4002C27.4464 31.1781 27.1499 32.0469 27.0449 32.9487C26.9399 33.8504 27.0287 34.7642 27.3055 35.6287C27.5823 36.4933 28.0407 37.2888 28.6499 37.9619C29.2591 38.6349 30.0051 39.17 30.8379 39.5314L41.2666 44.0843C43.4231 45.0257 45.1196 46.782 45.9859 48.9698C46.8521 51.1576 46.8178 53.5992 45.8904 55.7618L43.3254 61.7456C43.0456 62.3382 42.5469 62.7991 41.9342 63.0315C41.3215 63.2639 40.6426 63.2497 40.0402 62.9917C39.4378 62.7338 38.9589 62.2524 38.7042 61.6486C38.4495 61.0448 38.4389 60.3658 38.6746 59.7544L41.2396 53.7638C41.6399 52.8298 41.6545 51.7754 41.2802 50.8307C40.9058 49.886 40.173 49.1278 39.2416 48.7215L28.8129 44.172C27.3205 43.522 25.9842 42.561 24.8931 41.353C23.8021 40.1451 22.9815 38.7181 22.4863 37.1675C21.991 35.617 21.8326 33.9785 22.0214 32.3618C22.2103 30.7451 22.7422 29.1873 23.5815 27.7926C24.4208 26.398 25.5482 25.1986 26.8883 24.2746C28.2284 23.3507 29.7504 22.7236 31.3523 22.4351C32.9543 22.1467 34.5994 22.2035 36.1776 22.602C37.7558 23.0004 39.2308 23.7312 40.5039 24.7455L47.7905 30.5471C48.3373 30.9822 49.0155 31.219 49.7142 31.2188H62.9375C63.6088 31.2188 64.2527 31.4854 64.7274 31.9601C65.2021 32.4348 65.4688 33.0787 65.4688 33.75C65.4688 34.4213 65.2021 35.0652 64.7274 35.5399C64.2527 36.0146 63.6088 36.2813 62.9375 36.2813H49.7142C47.8691 36.281 46.0785 35.6552 44.6349 34.506L37.355 28.7078H37.3516ZM20.75 53.1563C18.736 53.1563 16.8045 53.9563 15.3804 55.3804C13.9563 56.8045 13.1562 58.736 13.1562 60.75C13.1562 62.764 13.9563 64.6955 15.3804 66.1196C16.8045 67.5437 18.736 68.3438 20.75 68.3438C22.764 68.3438 24.6955 67.5437 26.1196 66.1196C27.5437 64.6955 28.3438 62.764 28.3438 60.75C28.3438 58.736 27.5437 56.8045 26.1196 55.3804C24.6955 53.9563 22.764 53.1563 20.75 53.1563ZM8.09375 60.75C8.09375 57.3934 9.42717 54.1742 11.8007 51.8007C14.1742 49.4272 17.3934 48.0938 20.75 48.0938C24.1066 48.0938 27.3258 49.4272 29.6993 51.8007C32.0728 54.1742 33.4062 57.3934 33.4062 60.75C33.4062 64.1067 32.0728 67.3258 29.6993 69.6993C27.3258 72.0728 24.1066 73.4063 20.75 73.4063C17.3934 73.4063 14.1742 72.0728 11.8007 69.6993C9.42717 67.3258 8.09375 64.1067 8.09375 60.75ZM61.25 53.1563C59.236 53.1563 57.3045 53.9563 55.8804 55.3804C54.4563 56.8045 53.6562 58.736 53.6562 60.75C53.6562 62.764 54.4563 64.6955 55.8804 66.1196C57.3045 67.5437 59.236 68.3438 61.25 68.3438C63.264 68.3438 65.1955 67.5437 66.6196 66.1196C68.0437 64.6955 68.8438 62.764 68.8438 60.75C68.8438 58.736 68.0437 56.8045 66.6196 55.3804C65.1955 53.9563 63.264 53.1563 61.25 53.1563ZM48.5938 60.75C48.5938 57.3934 49.9272 54.1742 52.3007 51.8007C54.6742 49.4272 57.8934 48.0938 61.25 48.0938C64.6066 48.0938 67.8258 49.4272 70.1993 51.8007C72.5728 54.1742 73.9062 57.3934 73.9062 60.75C73.9062 64.1067 72.5728 67.3258 70.1993 69.6993C67.8258 72.0728 64.6066 73.4063 61.25 73.4063C57.8934 73.4063 54.6742 72.0728 52.3007 69.6993C49.9272 67.3258 48.5938 64.1067 48.5938 60.75Z" fill="#3FC3D7"/>
</g>
</svg>
