<svg width="82" height="81" viewBox="0 0 82 81" fill="none" xmlns="http://www.w3.org/2000/svg">
<g id="solar:bottle-outline">
<path id="Vector" fill-rule="evenodd" clip-rule="evenodd" d="M57.4583 8.76886L57.3739 8.92411L57.1174 9.38986L60.0401 11.1516L60.3034 10.6724L60.3844 10.5306L60.246 10.4462L57.6101 8.85998L57.4583 8.76886ZM58.5653 16.1736L53.5973 13.18L44.6029 17.6012C41.0674 19.2781 38.3294 22.273 36.9754 25.9442L37.1745 25.843C39.1667 24.847 41.4025 24.4427 43.6174 24.6777C45.8322 24.9128 47.9334 25.7775 49.6721 27.1694C51.417 28.5666 53.7559 28.9817 55.8788 28.2764L59.4394 27.0884L59.4056 26.6395L58.5653 16.1736ZM64.4951 29.6669C64.6484 29.2055 64.6648 28.7097 64.5424 28.2392C64.5424 27.7971 64.5289 27.3516 64.5019 26.9095L64.4513 26.2581L63.567 15.232L64.7651 13.0652C64.967 12.7167 65.1539 12.3598 65.3254 11.9954C65.5043 11.6039 65.7 11.0706 65.7304 10.4192C65.7704 9.54976 65.5405 8.68918 65.0723 7.95548C64.7714 7.49885 64.3852 7.10463 63.9349 6.79448C63.6033 6.56416 63.2621 6.34797 62.9123 6.14648L62.8583 6.11273L60.1616 4.48598C59.798 4.26143 59.4265 4.0498 59.0479 3.85148C58.5354 3.5846 57.9738 3.42498 57.3975 3.38236C56.4869 3.32852 55.5834 3.57127 54.8224 4.07423C54.3449 4.39842 53.9384 4.8164 53.6276 5.30273C53.4083 5.63348 53.1855 6.03848 52.9796 6.40973L51.8895 8.37736L42.3484 13.0686L41.7814 13.3487C36.2936 16.1669 32.4259 21.4656 31.2649 27.6351C31.2311 27.8039 31.2008 27.9827 31.1501 28.2764L31.1468 28.3L31.0455 28.8872C30.1374 33.9365 27.6638 38.5721 23.9749 42.1375L21.2614 44.8071C19.5604 46.4811 18.1901 47.8277 17.1641 48.9921C16.1179 50.1734 15.2741 51.331 14.7679 52.6607C14.1 54.4175 13.8628 56.3086 14.0759 58.1759C14.2891 60.0432 14.9464 61.8322 15.993 63.3932C16.7895 64.5745 17.8763 65.506 19.1621 66.4105C20.421 67.2981 22.0613 68.2836 24.0896 69.5087L26.496 70.96C28.5244 72.1784 30.1646 73.1672 31.5315 73.8625C32.922 74.5712 34.2518 75.0977 35.6659 75.2294C37.5212 75.3969 39.3886 75.0865 41.09 74.328C42.7915 73.5694 44.2704 72.3879 45.3859 70.8959C46.2431 69.7686 46.7798 68.4287 47.2354 66.9032C47.6843 65.4014 48.1163 63.4911 48.6529 61.1151L49.5135 57.3284L49.6451 56.7546C50.8138 51.7707 53.527 47.2833 57.3975 43.933L57.4178 43.9161L57.8936 43.4942C61.793 39.9074 64.1577 34.9542 64.4951 29.6669ZM58.8724 32.6132L57.4785 33.079C55.6321 33.6943 53.6611 33.8375 51.7451 33.4956C49.8292 33.1536 48.0294 32.3375 46.5098 31.1215C45.5259 30.3341 44.3372 29.8451 43.0841 29.7124C41.831 29.5796 40.5661 29.8086 39.4391 30.3722L35.4364 32.3736C34.1039 37.2524 31.5348 41.7047 27.9776 45.2999L27.5389 45.7386L24.876 48.3509C23.094 50.1059 21.8486 51.331 20.9576 52.3401C20.07 53.3459 19.6853 53.9669 19.4963 54.4664C18.7268 56.4914 18.99 58.7864 20.1881 60.565C20.4818 60.997 20.988 61.51 22.0748 62.2694C23.1683 63.0422 24.6533 63.9366 26.7829 65.2191L29.0273 66.5691C31.1569 67.855 32.6419 68.746 33.8265 69.3501C35.0078 69.9509 35.6693 70.1466 36.1384 70.1905C38.1161 70.3761 40.0804 69.5155 41.3494 67.8415C41.6666 67.4264 41.9906 66.7649 42.3855 65.452C42.777 64.1357 43.1753 62.3942 43.7355 59.9069L44.5793 56.1944L44.721 55.5801C46.0824 49.79 49.1708 44.5501 53.577 40.5546L54.0394 40.1462L54.0529 40.1327L54.4849 39.7514C56.5825 37.8261 58.1018 35.3542 58.8724 32.6132Z" fill="#3FC3D7"/>
</g>
</svg>
