<svg width="82" height="81" viewBox="0 0 82 81" fill="none" xmlns="http://www.w3.org/2000/svg">
<g id="solar:flame-outline">
<path id="Vector" fill-rule="evenodd" clip-rule="evenodd" d="M31.7525 10.4587C33.116 7.04662 37.6081 4.93724 41.0911 7.58999C46.8961 12.0112 54.176 18.5115 60.035 25.95C65.84 33.3176 70.5312 41.9677 70.5312 50.6246C70.5312 58.3635 68.135 64.1145 64.6655 68.2354C61.2264 72.3157 56.8591 74.6512 53.0892 75.8291C52.2435 76.1066 51.3283 76.0857 50.4961 75.77C49.6639 75.4543 48.9651 74.8629 48.5161 74.0944C47.7061 72.7342 47.7027 70.9219 48.7186 69.4672C51.611 65.3092 54.6687 59.3287 54.6687 53.9996C54.6687 51.3536 53.528 48.225 51.6886 45.012C50.3036 42.643 48.7195 40.3961 46.9535 38.2957C46.6126 43.0275 45.5832 48.9776 42.3905 53.8984C42.0537 54.427 41.595 54.8671 41.0531 55.1819C40.5111 55.4968 39.9015 55.6771 39.2755 55.7078C38.6495 55.7386 38.0252 55.6188 37.455 55.3586C36.8848 55.0984 36.3852 54.7053 35.9982 54.2122C35.4616 53.5339 34.9317 52.788 34.4457 52.1062L34.3614 51.9847C34.0947 51.6135 33.845 51.2591 33.602 50.9284C31.2867 53.2335 29.1301 55.9909 29.1301 59.0621C29.1301 61.7756 30.4835 65.4814 32.0866 68.6269C32.954 70.3245 32.5929 72.2077 31.5466 73.443C30.4396 74.7525 28.4214 75.4275 26.5077 74.3205C19.9467 70.5202 11.4688 62.4034 11.4688 50.6246C11.4688 47.4285 12.5521 44.1244 14.0675 40.8945C15.5964 37.6444 17.6653 34.2559 19.8387 30.8707C20.5914 29.6996 21.3575 28.5285 22.1169 27.3607C25.8463 21.6469 29.5419 15.9836 31.7525 10.4587ZM37.2807 11.532C37.0942 11.6003 36.9242 11.7071 36.7817 11.8455C36.6393 11.9839 36.5276 12.1508 36.4539 12.3352C34.0374 18.3765 29.9975 24.5595 26.2681 30.2666C25.5256 31.4006 24.8 32.5177 24.098 33.6079C21.938 36.966 20.0244 40.1182 18.6507 43.0444C17.267 45.9941 16.5312 48.5119 16.5312 50.6246C16.5312 58.3669 21.2799 64.3811 26.2614 68.1004C25.0632 65.2654 24.0676 61.9882 24.0676 59.0621C24.0676 53.2234 28.4551 48.8122 30.9054 46.4902C32.4916 44.9884 35.2321 44.8534 36.8319 46.8244C37.4056 47.5365 37.9726 48.3296 38.4856 49.0519L38.5464 49.1362L38.9682 49.7269C41.2295 45.4271 41.8572 40.1824 42.0159 35.8624C42.0834 34.0871 43.1836 32.6797 44.6281 32.0925C45.4056 31.7731 46.2632 31.7035 47.0821 31.8934C47.9009 32.0833 48.6403 32.5232 49.1979 33.1522C51.449 35.6396 54.0376 38.9302 56.0795 42.4942C58.0978 46.0144 59.7312 50.061 59.7312 53.9996C59.7312 59.7135 57.1393 65.5084 54.5203 69.825C56.9247 68.6615 59.0603 67.0098 60.791 64.9751C63.4471 61.8229 65.4688 57.2464 65.4688 50.6246C65.4688 43.6822 61.6314 36.156 56.0559 29.082C50.5378 22.0721 43.5988 15.8621 38.0233 11.6164C37.841 11.478 37.6014 11.424 37.2807 11.532Z" fill="#3FC3D7"/>
</g>
</svg>
