<svg width="82" height="81" viewBox="0 0 82 81" fill="none" xmlns="http://www.w3.org/2000/svg">
<g id="solar:cup-paper-outline">
<path id="Vector" fill-rule="evenodd" clip-rule="evenodd" d="M31.3701 4.21875H50.6313C53.6215 4.21875 56.0549 4.21875 58.036 4.42125C60.1015 4.62712 61.9038 5.06925 63.571 6.09187C64.0942 6.41587 64.597 6.777 65.0695 7.17187C66.568 8.43075 67.5569 10.0001 68.4108 11.8935C69.2241 13.7092 69.997 16.0177 70.942 18.8527L70.9825 18.9776L71.1513 19.4771C71.6474 20.9722 72.0929 22.302 72.3224 23.409C72.562 24.5801 72.6666 25.9301 72.0423 27.2666C71.7284 27.9416 71.2896 28.5491 70.753 29.0554C69.6832 30.0712 68.3669 30.4054 67.1823 30.5404C66.5748 30.6146 65.8829 30.6484 65.1235 30.6652L60.358 63.2306C59.9733 65.8496 59.6526 68.0467 59.17 69.7815C58.6638 71.6209 57.8943 73.251 56.4228 74.5234C54.9513 75.7957 53.2266 76.3189 51.3333 76.5551C49.5445 76.7812 47.3238 76.7812 44.6778 76.7812H37.3203C34.6743 76.7812 32.4535 76.7812 30.6648 76.5551C28.7714 76.3189 27.0468 75.7924 25.5753 74.5234C24.1038 73.251 23.3376 71.6209 22.828 69.7815C22.3454 68.0467 22.0248 65.8496 21.64 63.2306L16.8711 30.6619C16.1845 30.6555 15.4986 30.616 14.8158 30.5437C13.6311 30.402 12.3183 30.0712 11.245 29.0587C10.7064 28.5477 10.2691 27.9397 9.95577 27.2666C9.33139 25.9301 9.43602 24.5801 9.67564 23.409C9.90514 22.302 10.3506 20.9722 10.8501 19.4771L10.894 19.3421L11.056 18.8527C12.001 16.0177 12.7739 13.7092 13.5906 11.8935C14.4411 10.0001 15.4334 8.43075 16.9319 7.17525C17.403 6.77744 17.904 6.41638 18.4304 6.09525C20.0943 5.06925 21.8965 4.62713 23.962 4.41788C25.9465 4.21875 28.3799 4.21875 31.3701 4.21875ZM21.9876 30.6787L23.0575 37.9687H58.9405L60.007 30.6787H21.9876ZM58.2014 43.0312H23.7966L25.5246 54.8437H56.4666L58.1946 43.0312H58.2014ZM55.7275 59.9062H26.2705L26.6249 62.3362C27.04 65.1577 27.3168 67.0342 27.7049 68.4281C28.0728 69.7511 28.4575 70.3181 28.8861 70.6894C29.3148 71.0606 29.9324 71.3644 31.2993 71.5331C32.7336 71.7154 34.6304 71.7187 37.4789 71.7187H44.5191C47.3676 71.7187 49.2678 71.7154 50.6988 71.5331C52.0623 71.3644 52.6833 71.0606 53.1119 70.6894C53.5405 70.3181 53.9253 69.7511 54.2931 68.4281C54.6813 67.0342 54.9614 65.1544 55.3731 62.3396L55.7275 59.9062ZM24.4716 9.45675C22.8246 9.62212 21.856 9.92925 21.0831 10.4051C20.7673 10.5999 20.4661 10.8177 20.182 11.0565C19.4834 11.6404 18.886 12.4605 18.2076 13.9691C17.5056 15.525 16.8138 17.5905 15.8181 20.5807L15.6966 20.9419C15.1364 22.6159 14.7955 23.6554 14.6335 24.4316C14.5733 24.6663 14.5471 24.9084 14.5559 25.1505C14.5959 25.2303 14.6483 25.3032 14.7111 25.3665C14.938 25.4495 15.1755 25.4995 15.4165 25.515C16.2029 25.6095 17.2964 25.6162 19.0615 25.6162H62.9365C64.7016 25.6162 65.7952 25.6095 66.5815 25.515C66.8237 25.4998 67.0624 25.4498 67.2903 25.3665C67.3519 25.3029 67.4032 25.23 67.4421 25.1505C67.4509 24.9084 67.4247 24.6663 67.3645 24.4316C67.2025 23.6554 66.8583 22.6159 66.3014 20.9419L66.1833 20.5807C65.1843 17.5905 64.4924 15.525 63.7904 13.9691C63.1154 12.4605 62.5146 11.6404 61.816 11.0565C61.532 10.8176 61.2308 10.5999 60.9149 10.4051C60.1386 9.93262 59.1734 9.62212 57.5264 9.45675C55.8288 9.28462 53.6519 9.28125 50.4996 9.28125H31.4984C28.3461 9.28125 26.1693 9.28125 24.4716 9.45675Z" fill="#3FC3D7"/>
</g>
</svg>
