<svg width="82" height="81" viewBox="0 0 82 81" fill="none" xmlns="http://www.w3.org/2000/svg">
<g id="solar:bone-outline">
<path id="Vector" fill-rule="evenodd" clip-rule="evenodd" d="M58.4488 11.0296C57.3286 9.91046 55.81 9.28185 54.2266 9.28185C52.6432 9.28185 51.1246 9.91046 50.0045 11.0296C48.0875 12.9466 47.1088 16.3958 47.7905 18.8663C48.0943 19.9632 48.3035 21.2794 48.1854 22.6092C48.0673 23.9491 47.5981 25.4577 46.3966 26.6592L27.1591 45.8967C25.9576 47.0982 24.449 47.5673 23.1091 47.6854C21.8469 47.7758 20.5786 47.6422 19.3629 47.2906C16.8924 46.6088 13.4465 47.5876 11.5329 49.5046C10.956 50.0535 10.4948 50.7123 10.1764 51.4421C9.85799 52.172 9.68879 52.9582 9.67876 53.7544C9.66874 54.5506 9.81809 55.3408 10.118 56.0785C10.418 56.8161 10.8624 57.4863 11.4253 58.0496C11.9881 58.6129 12.658 59.0579 13.3954 59.3584C14.1328 59.6589 14.9228 59.8089 15.7191 59.7995C16.5153 59.7901 17.3016 59.6216 18.0317 59.3037C18.7618 58.9859 19.421 58.5252 19.9704 57.9488C20.2053 57.7135 20.4842 57.5267 20.7913 57.3992C21.0984 57.2716 21.4276 57.2058 21.7601 57.2055C22.0926 57.2052 22.422 57.2704 22.7293 57.3973C23.0366 57.5243 23.3159 57.7105 23.5513 57.9454C23.7866 58.1803 23.9734 58.4593 24.1009 58.7664C24.2284 59.0735 24.2943 59.4027 24.2946 59.7352C24.2949 60.0677 24.2297 60.397 24.1027 60.7043C23.9758 61.0117 23.7895 61.291 23.5546 61.5263C22.9874 62.0777 22.5354 62.7363 22.2249 63.4639C21.9144 64.1914 21.7516 64.9735 21.7459 65.7645C21.7402 66.5555 21.8918 67.3398 22.1918 68.0718C22.4918 68.8037 22.9343 69.4687 23.4936 70.0282C24.0528 70.5877 24.7177 71.0304 25.4495 71.3307C26.1814 71.6311 26.9656 71.783 27.7566 71.7776C28.5476 71.7722 29.3297 71.6097 30.0574 71.2995C30.7851 70.9893 31.4439 70.5376 31.9955 69.9706C33.9125 68.0536 34.8913 64.6043 34.2095 62.1338C33.8583 60.9192 33.7246 59.6521 33.8146 58.3909C33.9328 57.0511 34.4019 55.5424 35.6034 54.3409L54.8409 35.1034C56.0424 33.9019 57.551 33.4328 58.8909 33.3147C60.1531 33.2244 61.4214 33.3581 62.6371 33.7096C65.1076 34.3913 68.5535 33.4126 70.4671 31.4956C71.5028 30.3603 72.061 28.8695 72.0259 27.3332C71.9908 25.797 71.365 24.3333 70.2787 23.2465C69.1923 22.1596 67.7288 21.5333 66.1926 21.4976C64.6563 21.4618 63.1654 22.0195 62.0296 23.0547C61.5548 23.53 60.9106 23.7972 60.2387 23.7975C59.5668 23.7978 58.9224 23.5312 58.4471 23.0564C57.9718 22.5815 57.7046 21.9373 57.7043 21.2654C57.7039 20.5936 57.9705 19.9491 58.4454 19.4738C58.9999 18.9194 59.4398 18.2612 59.7399 17.5367C60.04 16.8123 60.1945 16.0358 60.1945 15.2517C60.1945 14.4675 60.04 13.6911 59.7399 12.9666C59.4398 12.2422 59.0033 11.584 58.4488 11.0296ZM65.2089 16.2912C65.4212 14.031 64.9314 11.7604 63.8062 9.78874C62.681 7.8171 60.9752 6.24042 58.9213 5.2736C56.8673 4.30678 54.5652 3.99687 52.3287 4.38611C50.0922 4.77535 48.0302 5.8448 46.4236 7.44869C43.322 10.5537 41.7054 15.8491 42.9136 20.2163C43.1094 20.9251 43.1938 21.6136 43.1431 22.1637C43.0959 22.7037 42.9406 22.9534 42.8158 23.0817L23.5783 42.3192C23.4534 42.4441 23.2036 42.5959 22.6636 42.6432C22.0061 42.6795 21.3473 42.6018 20.7163 42.4137C16.349 41.2054 11.0503 42.8221 7.94863 45.9237C6.34474 47.5302 5.27528 49.5923 4.88604 51.8288C4.4968 54.0653 4.80672 56.3674 5.77354 58.4213C6.74036 60.4753 8.31704 62.1811 10.2887 63.3063C12.2603 64.4315 14.531 64.9213 16.7911 64.7089C16.5768 66.9698 17.0654 69.2418 18.1902 71.2147C19.315 73.1876 21.0212 74.7653 23.076 75.7325C25.1307 76.6997 27.4339 77.0092 29.6711 76.6189C31.9083 76.2286 33.9706 75.1573 35.5764 73.5514C38.678 70.4464 40.2946 65.1511 39.0864 60.7838C38.8983 60.1527 38.8207 59.4939 38.8569 58.8364C38.9041 58.2964 39.0594 58.0467 39.1843 57.9184L58.4218 38.6809C58.5466 38.5561 58.7964 38.4042 59.3364 38.3569C59.8865 38.3063 60.5716 38.3907 61.2838 38.5864C65.651 39.7947 70.9498 38.1781 74.048 35.0764C75.6536 33.4708 76.7246 31.4089 77.115 29.1721C77.5054 26.9352 77.1961 24.6324 76.2294 22.5778C75.2626 20.5233 73.6855 18.817 71.7132 17.6919C69.7409 16.5668 67.4695 16.0777 65.2089 16.2912Z" fill="#3FC3D7"/>
</g>
</svg>
