<svg width="183" height="43" viewBox="0 0 183 43" fill="none" xmlns="http://www.w3.org/2000/svg">
<path d="M0.564 22.972H6.774C6.89667 24.0147 7.372 24.9653 8.2 25.824C9.05867 26.652 10.178 27.3113 11.558 27.802C12.938 28.262 14.4867 28.492 16.204 28.492C17.768 28.492 19.056 28.3233 20.068 27.986C21.08 27.6487 21.8313 27.1733 22.322 26.56C22.8127 25.9467 23.058 25.2107 23.058 24.352C23.058 23.524 22.7513 22.8953 22.138 22.466C21.5247 22.006 20.5587 21.638 19.24 21.362C17.9213 21.0553 16.1887 20.7487 14.042 20.442C12.3553 20.1967 10.7607 19.8593 9.258 19.43C7.75533 18.97 6.42133 18.3873 5.256 17.682C4.12133 16.9767 3.21667 16.118 2.542 15.106C1.898 14.0633 1.576 12.8367 1.576 11.426C1.576 9.678 2.06667 8.14467 3.048 6.826C4.06 5.50733 5.54733 4.48 7.51 3.744C9.47267 3.008 11.88 2.64 14.732 2.64C19.0253 2.64 22.322 3.56 24.622 5.4C26.9527 7.20933 28.0873 9.70867 28.026 12.898H22.046C21.9233 11.0887 21.1567 9.78533 19.746 8.988C18.366 8.19067 16.618 7.792 14.502 7.792C12.5393 7.792 10.914 8.08333 9.626 8.666C8.36867 9.24866 7.74 10.2453 7.74 11.656C7.74 12.208 7.89333 12.6987 8.2 13.128C8.50667 13.5267 9.028 13.8793 9.764 14.186C10.5 14.4927 11.4967 14.784 12.754 15.06C14.0113 15.336 15.5753 15.612 17.446 15.888C19.194 16.1333 20.7733 16.4707 22.184 16.9C23.6253 17.2987 24.852 17.8353 25.864 18.51C26.9067 19.154 27.704 19.982 28.256 20.994C28.808 22.006 29.084 23.248 29.084 24.72C29.084 26.5293 28.6087 28.1087 27.658 29.458C26.738 30.7767 25.2967 31.804 23.334 32.54C21.402 33.276 18.8873 33.644 15.79 33.644C13.582 33.644 11.6347 33.414 9.948 32.954C8.26133 32.4633 6.80467 31.8193 5.578 31.022C4.35133 30.2247 3.35467 29.3507 2.588 28.4C1.82133 27.4493 1.26933 26.4987 0.932 25.548C0.625333 24.5973 0.502667 23.7387 0.564 22.972ZM60.1495 33H54.1695V10.138H60.1495V33ZM54.4915 22.006L54.5375 23.57C54.4761 23.9993 54.3228 24.628 54.0775 25.456C53.8321 26.2533 53.4488 27.112 52.9275 28.032C52.4368 28.952 51.7928 29.8413 50.9955 30.7C50.1981 31.528 49.2168 32.218 48.0515 32.77C46.8861 33.2913 45.5061 33.552 43.9115 33.552C42.6541 33.552 41.4121 33.3987 40.1855 33.092C38.9895 32.7853 37.9008 32.2793 36.9195 31.574C35.9381 30.838 35.1561 29.8567 34.5735 28.63C33.9908 27.4033 33.6995 25.8547 33.6995 23.984V10.138H39.6795V22.972C39.6795 24.444 39.9095 25.6093 40.3695 26.468C40.8601 27.296 41.5655 27.8787 42.4855 28.216C43.4055 28.5533 44.4941 28.722 45.7515 28.722C47.4075 28.722 48.8335 28.3693 50.0295 27.664C51.2255 26.928 52.1915 26.0387 52.9275 24.996C53.6941 23.9533 54.2155 22.9567 54.4915 22.006ZM82.246 33.552C80.222 33.552 78.4893 33.1993 77.048 32.494C75.6373 31.758 74.4873 30.8073 73.598 29.642C72.7087 28.446 72.0493 27.1427 71.62 25.732C71.1907 24.3213 70.976 22.9413 70.976 21.592C70.976 19.9053 71.1753 18.3413 71.574 16.9C72.0033 15.4587 72.6627 14.2013 73.552 13.128C74.4413 12.024 75.5913 11.1653 77.002 10.552C78.4433 9.93867 80.1913 9.632 82.246 9.632C84.546 9.632 86.616 10.138 88.456 11.15C90.296 12.162 91.7527 13.5727 92.826 15.382C93.93 17.1607 94.482 19.2307 94.482 21.592C94.482 24.0147 93.93 26.1307 92.826 27.94C91.722 29.7187 90.25 31.0987 88.41 32.08C86.57 33.0613 84.5153 33.552 82.246 33.552ZM80.314 28.906C81.9393 28.906 83.35 28.5993 84.546 27.986C85.7727 27.3727 86.708 26.5293 87.352 25.456C88.0267 24.352 88.364 23.064 88.364 21.592C88.364 19.384 87.6587 17.6053 86.248 16.256C84.868 14.9067 82.89 14.232 80.314 14.232C78.6887 14.232 77.2013 14.5233 75.852 15.106C74.5333 15.6887 73.4907 16.532 72.724 17.636C71.9573 18.7093 71.574 20.028 71.574 21.592C71.574 23.064 71.9267 24.352 72.632 25.456C73.3373 26.5293 74.3493 27.3727 75.668 27.986C76.9867 28.5993 78.5353 28.906 80.314 28.906ZM65.594 10.138H71.298L71.574 16.21V42.2H65.594V10.138ZM115.533 33.552C113.509 33.552 111.776 33.1993 110.335 32.494C108.924 31.758 107.774 30.8073 106.885 29.642C105.996 28.446 105.336 27.1427 104.907 25.732C104.478 24.3213 104.263 22.9413 104.263 21.592C104.263 19.9053 104.462 18.3413 104.861 16.9C105.29 15.4587 105.95 14.2013 106.839 13.128C107.728 12.024 108.878 11.1653 110.289 10.552C111.73 9.93867 113.478 9.632 115.533 9.632C117.833 9.632 119.903 10.138 121.743 11.15C123.583 12.162 125.04 13.5727 126.113 15.382C127.217 17.1607 127.769 19.2307 127.769 21.592C127.769 24.0147 127.217 26.1307 126.113 27.94C125.009 29.7187 123.537 31.0987 121.697 32.08C119.857 33.0613 117.802 33.552 115.533 33.552ZM113.601 28.906C115.226 28.906 116.637 28.5993 117.833 27.986C119.06 27.3727 119.995 26.5293 120.639 25.456C121.314 24.352 121.651 23.064 121.651 21.592C121.651 19.384 120.946 17.6053 119.535 16.256C118.155 14.9067 116.177 14.232 113.601 14.232C111.976 14.232 110.488 14.5233 109.139 15.106C107.82 15.6887 106.778 16.532 106.011 17.636C105.244 18.7093 104.861 20.028 104.861 21.592C104.861 23.064 105.214 24.352 105.919 25.456C106.624 26.5293 107.636 27.3727 108.955 27.986C110.274 28.5993 111.822 28.906 113.601 28.906ZM98.8811 10.138H104.585L104.861 16.21V42.2H98.8811V10.138ZM132.628 0.937999H138.608V33H132.628V0.937999ZM165.494 25.41H171.29C171.045 26.974 170.386 28.3693 169.312 29.596C168.27 30.8227 166.844 31.7887 165.034 32.494C163.225 33.1993 161.017 33.552 158.41 33.552C155.497 33.552 152.921 33.092 150.682 32.172C148.444 31.2213 146.696 29.8567 145.438 28.078C144.181 26.2993 143.552 24.1527 143.552 21.638C143.552 19.1233 144.166 16.9767 145.392 15.198C146.619 13.3887 148.321 12.0087 150.498 11.058C152.706 10.1073 155.282 9.632 158.226 9.632C161.232 9.632 163.731 10.1073 165.724 11.058C167.718 12.0087 169.19 13.45 170.14 15.382C171.122 17.2833 171.536 19.7213 171.382 22.696H149.578C149.732 23.8613 150.161 24.9193 150.866 25.87C151.602 26.8207 152.584 27.572 153.81 28.124C155.068 28.676 156.555 28.952 158.272 28.952C160.174 28.952 161.753 28.63 163.01 27.986C164.298 27.3113 165.126 26.4527 165.494 25.41ZM157.95 14.186C155.742 14.186 153.948 14.6767 152.568 15.658C151.188 16.6087 150.299 17.7893 149.9 19.2H165.448C165.295 17.6667 164.559 16.4553 163.24 15.566C161.952 14.646 160.189 14.186 157.95 14.186Z" fill="white"/>
<path d="M182.329 27.756V33H175.383V27.756H182.329Z" fill="#3FC3D7"/>
</svg>
